<svg xmlns="http://www.w3.org/2000/svg" xmlns:xlink="http://www.w3.org/1999/xlink" width="390" height="196" viewBox="0 0 390 196">
  <defs>
    <path id="zui-b" d="M116.727273,157.723684 L116.727273,131.54595 C116.727273,128.784526 114.488696,126.54595 111.727273,126.54595 L61.5292095,126.54595 C58.7677858,126.54595 56.5292095,124.307373 56.5292095,121.54595 C56.5292095,120.485552 56.8663369,119.452612 57.4918807,118.596378 L113.563712,41.8461205 C114.195974,40.98069 114.533413,39.934997 114.526272,38.8632348 L114.351359,12.6114232 C114.333048,9.8630614 112.099893,7.64473684 109.35147,7.64473684 L5.87600205,7.64473684 C3.1145783,7.64473684 0.876002047,9.88331309 0.876002047,12.6447368 L0.876002047,38.3812795 C0.876002047,41.1427032 3.1145783,43.3812795 5.87600205,43.3812795 L54.3989946,43.3812795 C57.1604184,43.3812795 59.3989946,45.6198557 59.3989946,48.3812795 C59.3989946,49.4613712 59.0492442,50.5124241 58.4020783,51.3771635 L0.99691634,128.081623 C0.349750456,128.946362 7.74198165e-16,129.997415 0,131.077507 L0,157.723684 C3.38176876e-16,160.485108 2.23857625,162.723684 5,162.723684 L111.727273,162.723684 C114.488696,162.723684 116.727273,160.485108 116.727273,157.723684 Z"/>
    <filter id="zui-a" width="136%" height="127.1%" x="-18%" y="-13.5%" filterUnits="objectBoundingBox">
      <feMorphology in="SourceAlpha" operator="dilate" radius="4.5" result="shadowSpreadOuter1"/>
      <feOffset in="shadowSpreadOuter1" result="shadowOffsetOuter1"/>
      <feGaussianBlur in="shadowOffsetOuter1" result="shadowBlurOuter1" stdDeviation="4.5"/>
      <feComposite in="shadowBlurOuter1" in2="SourceAlpha" operator="out" result="shadowBlurOuter1"/>
      <feColorMatrix in="shadowBlurOuter1" values="0 0 0 0 1   0 0 0 0 0.498039216   0 0 0 0 0  0 0 0 0.6 0"/>
    </filter>
    <path id="zui-d" d="M229.727086,149.221825 L231.075739,158.414311 C231.43589,160.869116 233.541697,162.688518 236.022781,162.688518 L263.363636,162.688518 C266.12506,162.688518 268.363636,160.449942 268.363636,157.688518 L268.363636,47.5921053 C268.363636,44.8306815 266.12506,42.5921053 263.363636,42.5921053 L232.751353,42.5921053 C229.98993,42.5921053 227.751353,44.8306815 227.751353,47.5921053 L227.751353,120.080783 L227.751353,120.080783 C227.751353,128.911402 222.482733,135.092835 212.823595,135.092835 C203.603509,135.092835 202.066828,128.469871 202.066828,120.080783 L202.066828,47.5921053 C202.066828,44.8306815 199.828252,42.5921053 197.066828,42.5921053 L166.454545,42.5921053 C163.693122,42.5921053 161.454545,44.8306815 161.454545,47.5921053 L161.454545,128.02834 L161.454545,128.02834 C161.454545,147.455701 168.918424,166 197.017734,166 C216.775061,166 225.336569,155.844789 229.727086,149.221825 Z"/>
    <filter id="zui-c" width="139.3%" height="134%" x="-19.6%" y="-17%" filterUnits="objectBoundingBox">
      <feMorphology in="SourceAlpha" operator="dilate" radius="4.5" result="shadowSpreadOuter1"/>
      <feOffset in="shadowSpreadOuter1" result="shadowOffsetOuter1"/>
      <feGaussianBlur in="shadowOffsetOuter1" result="shadowBlurOuter1" stdDeviation="4.5"/>
      <feComposite in="shadowBlurOuter1" in2="SourceAlpha" operator="out" result="shadowBlurOuter1"/>
      <feColorMatrix in="shadowBlurOuter1" values="0 0 0 0 1   0 0 0 0 0.498039216   0 0 0 0 0  0 0 0 0.6 0"/>
    </filter>
    <path id="zui-f" d="M360,20.7279339 L360,5 C360,2.23857625 357.761424,-5.07265313e-16 355,0 L324.636364,0 C321.87494,5.07265313e-16 319.636364,2.23857625 319.636364,5 L319.636364,20.7279339 C319.636364,23.4893576 321.87494,25.7279339 324.636364,25.7279339 L355,25.7279339 C357.761424,25.7279339 360,23.4893576 360,20.7279339 Z M360,157.723684 L360,48.0997866 C360,45.3383629 357.761424,43.0997866 355,43.0997866 L324.636364,43.0997866 C321.87494,43.0997866 319.636364,45.3383629 319.636364,48.0997866 L319.636364,157.723684 C319.636364,160.485108 321.87494,162.723684 324.636364,162.723684 L355,162.723684 C357.761424,162.723684 360,160.485108 360,157.723684 Z"/>
    <filter id="zui-e" width="204.1%" height="125.8%" x="-52%" y="-12.9%" filterUnits="objectBoundingBox">
      <feMorphology in="SourceAlpha" operator="dilate" radius="4.5" result="shadowSpreadOuter1"/>
      <feOffset in="shadowSpreadOuter1" result="shadowOffsetOuter1"/>
      <feGaussianBlur in="shadowOffsetOuter1" result="shadowBlurOuter1" stdDeviation="4.5"/>
      <feComposite in="shadowBlurOuter1" in2="SourceAlpha" operator="out" result="shadowBlurOuter1"/>
      <feColorMatrix in="shadowBlurOuter1" values="0 0 0 0 1   0 0 0 0 0.498039216   0 0 0 0 0  0 0 0 0.6 0"/>
    </filter>
  </defs>
  <g fill="none" fill-rule="evenodd" transform="translate(15 15)">
    <use fill="#000" filter="url(#zui-a)" xlink:href="#zui-b"/>
    <use fill="#FFF" stroke="#FF7F00" stroke-width="6" xlink:href="#zui-b"/>
    <use stroke="#000" stroke-width="3" xlink:href="#zui-b"/>
    <use fill="#000" filter="url(#zui-c)" xlink:href="#zui-d"/>
    <use fill="#FFF" stroke="#FF7F00" stroke-width="6" xlink:href="#zui-d"/>
    <use stroke="#000" stroke-width="3" xlink:href="#zui-d"/>
    <use fill="#000" filter="url(#zui-e)" xlink:href="#zui-f"/>
    <use fill="#FFF" stroke="#FF7F00" stroke-width="6" xlink:href="#zui-f"/>
    <use stroke="#000" stroke-width="3" xlink:href="#zui-f"/>
  </g>
</svg>
