<svg xmlns="http://www.w3.org/2000/svg" xmlns:xlink="http://www.w3.org/1999/xlink" width="214" height="218" viewBox="0 0 214 218">
  <defs>
    <filter id="icon-a" width="166.1%" height="161.2%" x="-32.9%" y="-24.8%" filterUnits="objectBoundingBox">
      <feOffset in="SourceAlpha" result="icon-shadowOffsetOuter1"/>
      <feGaussianBlur in="icon-shadowOffsetOuter1" result="shadowBlurOuter1" stdDeviation="9.5"/>
      <feColorMatrix in="shadowBlurOuter1" result="shadowMatrixOuter1" values="0 0 0 0 1   0 0 0 0 1   0 0 0 0 1  0 0 0 0.482271635 0"/>
      <feMerge>
        <feMergeNode in="shadowMatrixOuter1"/>
        <feMergeNode in="SourceGraphic"/>
      </feMerge>
    </filter>
    <path id="icon-c" d="M139.51435,43.3664307 C139.51435,41.7134138 139.51435,40.0602279 139.504852,38.407042 C139.496555,37.0144318 139.480471,35.6221597 139.442545,34.2302255 C139.360598,31.1964274 139.181296,28.1366055 138.640682,25.1366046 C138.092449,22.0933433 137.197125,19.2609761 135.786246,16.4958651 C134.39924,13.77807 132.587429,11.2911093 130.42565,9.13502233 C128.264379,6.97893535 125.771933,5.17180359 123.047868,3.78831867 C120.274532,2.37982388 117.433642,1.48656612 114.381111,0.939559809 C111.374971,0.400833789 108.308387,0.222216034 105.268724,0.140258029 C103.873083,0.102574245 102.477442,0.086689601 101.081462,0.0780713366 C99.4242333,0.067932202 97.7670047,0.0687771299 96.1097761,0.0687771299 L76.8677743,0 L62.4762307,0 L43.5747159,0.0687771299 C41.9142704,0.0687771299 40.2538249,0.067932202 38.5933793,0.0780713366 C37.1945213,0.086689601 35.7963405,0.102574245 34.3979904,0.140258029 C31.3512159,0.222216034 28.2776902,0.401002774 25.2644395,0.940404737 C22.207845,1.48724206 19.3627215,2.38016185 16.5856615,3.78764272 C13.8558396,5.17129663 11.3579756,6.97859738 9.1921329,9.13502233 C7.02662886,11.2909403 5.21143193,13.7773941 3.82188606,16.4946822 C2.40711266,19.2611451 1.51009621,22.0952022 0.960508555,25.1401533 C0.419386513,28.1389713 0.240084811,31.1977793 0.157629731,34.2302255 C0.120042405,35.6223286 0.103788427,37.0146008 0.0953228127,38.407042 C0.085164076,40.0603968 0,42.1140786 0,43.7672645 L0,62.3708866 L0,76.8884376 L0.0860106374,95.887317 C0.0860106374,97.5426997 0.0853333883,99.1980824 0.0953228127,100.853465 C0.103788427,102.247934 0.120042405,103.642065 0.157799043,105.036027 C0.240084811,108.073712 0.419725138,111.137927 0.961355116,114.141984 C1.51077346,117.189301 2.4076206,120.025724 3.82120881,122.794384 C5.21092399,125.516065 7.02645955,128.006237 9.1921329,130.165365 C11.3578063,132.324494 13.854993,134.133992 16.584307,135.519504 C19.3630601,136.929858 22.2095381,137.824299 25.2679951,138.371981 C28.2798912,138.911552 31.3524011,139.090508 34.3979904,139.172466 C35.7963405,139.210149 37.1946906,139.226203 38.5935487,139.234652 C40.2539942,139.244622 41.9142704,139.244622 43.5747159,139.244622 L62.6470668,139.244622 L77.0743353,139.244622 L96.1097761,139.244622 C97.7670047,139.244622 99.4242333,139.244622 101.081462,139.234652 C102.477442,139.226203 103.873083,139.210149 105.268724,139.172466 C108.309572,139.090339 111.377172,138.911214 114.384666,138.371305 C117.435335,137.823623 120.274871,136.92952 123.046682,135.520011 C125.771256,134.134668 128.26421,132.324832 130.42565,130.165365 C132.587091,128.006575 134.398732,125.516741 135.785738,122.795566 C137.197464,120.025555 138.092787,117.18778 138.641359,114.138435 C139.181465,111.135562 139.360598,108.072529 139.442714,105.036027 C139.480471,103.641896 139.496555,102.247765 139.504852,100.853465 C139.51435,99.1980824 139.51435,97.5426997 139.51435,95.887317 C139.51435,95.887317 139.51435,77.2238739 139.51435,76.8884376 L139.51435,62.3556779 C139.51435,62.1079451 139.51435,43.3664307 139.51435,43.3664307"/>
    <filter id="icon-b" width="126.5%" height="126.6%" x="-13.3%" y="-8.3%" filterUnits="objectBoundingBox">
      <feOffset dy="7" in="SourceAlpha" result="icon-shadowOffsetOuter1"/>
      <feGaussianBlur in="icon-shadowOffsetOuter1" result="shadowBlurOuter1" stdDeviation="5"/>
      <feColorMatrix in="shadowBlurOuter1" values="0 0 0 0 0   0 0 0 0 0   0 0 0 0 0  0 0 0 0.3 0"/>
    </filter>
    <path id="icon-d" d="M139.51435,43.3664307 C139.51435,41.7134138 139.51435,40.0602279 139.504852,38.407042 C139.496555,37.0144318 139.480471,35.6221597 139.442545,34.2302255 C139.360598,31.1964274 139.181296,28.1366055 138.640682,25.1366046 C138.092449,22.0933433 137.197125,19.2609761 135.786246,16.4958651 C134.39924,13.77807 132.587429,11.2911093 130.42565,9.13502233 C128.264379,6.97893535 125.771933,5.17180359 123.047868,3.78831867 C120.274532,2.37982388 117.433642,1.48656612 114.381111,0.939559809 C111.374971,0.400833789 108.308387,0.222216034 105.268724,0.140258029 C103.873083,0.102574245 102.477442,0.086689601 101.081462,0.0780713366 C99.4242333,0.067932202 97.7670047,0.0687771299 96.1097761,0.0687771299 L76.8677743,0 L62.4762307,0 L43.5747159,0.0687771299 C41.9142704,0.0687771299 40.2538249,0.067932202 38.5933793,0.0780713366 C37.1945213,0.086689601 35.7963405,0.102574245 34.3979904,0.140258029 C31.3512159,0.222216034 28.2776902,0.401002774 25.2644395,0.940404737 C22.207845,1.48724206 19.3627215,2.38016185 16.5856615,3.78764272 C13.8558396,5.17129663 11.3579756,6.97859738 9.1921329,9.13502233 C7.02662886,11.2909403 5.21143193,13.7773941 3.82188606,16.4946822 C2.40711266,19.2611451 1.51009621,22.0952022 0.960508555,25.1401533 C0.419386513,28.1389713 0.240084811,31.1977793 0.157629731,34.2302255 C0.120042405,35.6223286 0.103788427,37.0146008 0.0953228127,38.407042 C0.085164076,40.0603968 0,42.1140786 0,43.7672645 L0,62.3708866 L0,76.8884376 L0.0860106374,95.887317 C0.0860106374,97.5426997 0.0853333883,99.1980824 0.0953228127,100.853465 C0.103788427,102.247934 0.120042405,103.642065 0.157799043,105.036027 C0.240084811,108.073712 0.419725138,111.137927 0.961355116,114.141984 C1.51077346,117.189301 2.4076206,120.025724 3.82120881,122.794384 C5.21092399,125.516065 7.02645955,128.006237 9.1921329,130.165365 C11.3578063,132.324494 13.854993,134.133992 16.584307,135.519504 C19.3630601,136.929858 22.2095381,137.824299 25.2679951,138.371981 C28.2798912,138.911552 31.3524011,139.090508 34.3979904,139.172466 C35.7963405,139.210149 37.1946906,139.226203 38.5935487,139.234652 C40.2539942,139.244622 41.9142704,139.244622 43.5747159,139.244622 L62.6470668,139.244622 L77.0743353,139.244622 L96.1097761,139.244622 C97.7670047,139.244622 99.4242333,139.244622 101.081462,139.234652 C102.477442,139.226203 103.873083,139.210149 105.268724,139.172466 C108.309572,139.090339 111.377172,138.911214 114.384666,138.371305 C117.435335,137.823623 120.274871,136.92952 123.046682,135.520011 C125.771256,134.134668 128.26421,132.324832 130.42565,130.165365 C132.587091,128.006575 134.398732,125.516741 135.785738,122.795566 C137.197464,120.025555 138.092787,117.18778 138.641359,114.138435 C139.181465,111.135562 139.360598,108.072529 139.442714,105.036027 C139.480471,103.641896 139.496555,102.247765 139.504852,100.853465 C139.51435,99.1980824 139.51435,97.5426997 139.51435,95.887317 C139.51435,95.887317 139.51435,77.2238739 139.51435,76.8884376 L139.51435,62.3556779 C139.51435,62.1079451 139.51435,43.3664307 139.51435,43.3664307"/>
    <filter id="icon-f" width="145%" height="142.6%" x="-22.5%" y="-21.3%" filterUnits="objectBoundingBox">
      <feOffset dy="5" in="SourceAlpha" result="icon-shadowOffsetOuter1"/>
      <feGaussianBlur in="icon-shadowOffsetOuter1" result="shadowBlurOuter1" stdDeviation="2.5"/>
      <feColorMatrix in="shadowBlurOuter1" result="shadowMatrixOuter1" values="0 0 0 0 0   0 0 0 0 0   0 0 0 0 0  0 0 0 0.0982742843 0"/>
      <feMerge>
        <feMergeNode in="shadowMatrixOuter1"/>
        <feMergeNode in="SourceGraphic"/>
      </feMerge>
    </filter>
  </defs>
  <g fill="none" fill-rule="evenodd" filter="url(#icon-a)" transform="translate(37 27)">
    <g transform="translate(.486 7.755)">
      <use fill="#000" filter="url(#icon-b)" xlink:href="#icon-c"/>
      <use fill="#A2B1B9" xlink:href="#icon-c"/>
    </g>
    <mask id="icon-e" fill="#fff">
      <use xlink:href="#icon-d"/>
    </mask>
    <use fill="#FFF" xlink:href="#icon-d"/>
    <g mask="url(#icon-e)">
      <polygon fill="#F3F5F6" points="33.111 78.199 72.127 117.266 50.407 139.245 0 139.245 0 0"/>
      <polygon fill="#F3F5F6" points="67.26 23.205 91.513 0 139.514 0 139.514 139.245 106.406 65.831"/>
      <polygon fill="#F3F5F6" points="33.111 78.199 72.127 117.266 50.407 139.245 0 139.245 0 0"/>
      <polygon fill="#F3F5F6" points="67.26 23.205 91.513 0 139.514 0 139.514 139.245 106.406 65.831"/>
      <g filter="url(#icon-f)" transform="translate(25.284 22.864)">
        <path fill="#D5630B" d="M23.3262581,36.3673668 L19.5860924,32.6272012 L19.6039748,15.1846256 L74.9048677,15.1279303 L78.6450334,18.868096 L78.6092686,53.753247 C66.7450517,54.1678284 60.6005081,54.1741278 60.1756376,53.7721455 C60.0187825,53.6237403 58.7720606,52.3770184 56.4354719,50.0319798 C59.5628773,41.6206371 60.81556,37.0531672 60.19352,36.3295699 C59.2074332,35.1824898 46.9183459,35.1950888 23.3262581,36.3673668 Z" transform="rotate(45 49.116 34.598)"/>
        <path fill="#D5630B" d="M69.2543829,61.3927022 L69.2365005,78.8352778 L13.9356076,78.8919731 L10.1954419,75.1518075 L10.2312068,40.2666564 L28.6648377,40.2477579 C31.021975,42.6122382 32.2686969,43.8589601 32.4050034,43.9879236 C33.063562,44.6110051 30.544652,60.5602602 32.387121,61.4304991 C33.135609,61.7840266 44.1779744,60.5247058 65.5142172,57.6525366 L69.2543829,61.3927022 Z" transform="rotate(45 39.725 59.57)"/>
        <g fill="#FF7F00" transform="rotate(45 21.02 50.594)">
          <path d="M0,17.4246931 L0,0 L55.3575882,0 L55.3575882,34.8493863 C43.481621,35.2513921 37.3307779,35.2513921 36.9050588,34.8493863 C36.2664802,34.2463776 38.3874728,19.145066 36.9050588,17.4246931 C35.9167828,16.2777779 23.6150966,16.2777779 0,17.4246931 Z"/>
          <path d="M66.4291059,41.8192635 L66.4291059,59.2439566 L11.0715176,59.2439566 L11.0715176,24.3945704 C22.933288,23.9791585 29.0841311,23.9791585 29.5240471,24.3945704 C30.183921,25.0176882 27.6787941,40.9480289 29.5240471,41.8192635 C30.7542157,42.4000866 43.055902,42.4000866 66.4291059,41.8192635 Z"/>
        </g>
      </g>
    </g>
  </g>
</svg>
